<svg xmlns="http://www.w3.org/2000/svg" viewBox="0 0 30.31 30.33"><defs><style>.cls-1{fill:#32b482;}</style></defs><title>Leaf</title><g id="Слой_2" data-name="Слой 2"><g id="Слой_1-2" data-name="Слой 1"><path class="cls-1" d="M26.31,25.66a14.79,14.79,0,0,0,2.27-3.17c.2-.38.39-.77.56-1.16a14.52,14.52,0,0,0,.76-2.28A13.7,13.7,0,0,0,30.24,17a13.37,13.37,0,0,0,.07-1.42V4.33H19.07a13.37,13.37,0,0,0-1.42.07,14.07,14.07,0,0,0-2.06.35,14.76,14.76,0,0,0-2.27.76c-.4.17-.78.35-1.16.55A14.63,14.63,0,0,0,9,8.35l-.33.31h8.66v8.66H8.66V8.66a15.19,15.19,0,0,0-1.48,1.73A14.6,14.6,0,0,0,4.48,17a13.94,13.94,0,0,0-.15,2.05V30.33H15.59a17.36,17.36,0,0,0,2.06-.15,14.67,14.67,0,0,0,6.6-2.7A16.25,16.25,0,0,0,26.31,25.66Z"/><polygon class="cls-1" points="8.66 6.06 8.66 4 8.66 1.73 8.66 0 6.93 0 4.66 0 2.6 0 0.33 0 0 0 0 1.73 0 4 0 6.06 0 8.34 0 8.66 0.33 8.66 2.6 8.66 4.66 8.66 6.93 8.66 8.66 8.66 8.66 8.34 8.66 6.06"/></g></g></svg>